Coordinates
nRows=5
nColumns=38

# SIMM Motion File Header:
name Coordinates
datacolumns 38
datarows 5
otherdata 1
range 2.41650000000000010000 2.42050000000000010000

Units are S.I. units (second, meters, Newtons, ...)
Angles are in degrees.

endheader
time	pelvis_tilt	pelvis_list	pelvis_rotation	pelvis_tx	pelvis_ty	pelvis_tz	hip_flexion_r	hip_adduction_r	hip_rotation_r	knee_angle_r	ankle_angle_r	subtalar_angle_r	mtp_angle_r	hip_flexion_l	hip_adduction_l	hip_rotation_l	knee_angle_l	ankle_angle_l	subtalar_angle_l	mtp_angle_l	lumbar_extension	lumbar_bending	lumbar_rotation	arm_flex_r	arm_add_r	arm_rot_r	elbow_flex_r	pro_sup_r	wrist_flex_r	wrist_dev_r	arm_flex_l	arm_add_l	arm_rot_l	elbow_flex_l	pro_sup_l	wrist_flex_l	wrist_dev_l
      2.41650000000000010000	     -6.03648209028659900000	      0.23402109855840331000	      4.34934796354428070000	      0.91887821970043737000	      1.02658199007661330000	     -0.30598633854948598000	     43.04679261193094700000	      3.59589188571486900000	      3.27896152416668540000	    -91.99251962603710800000	      3.68360788570430530000	      0.00000000000014357133	      0.00000000000005618759	      2.23700251657357100000	      8.47394705603213440000	     12.51343987958865100000	    -28.07965846153858500000	     18.45438623834701600000	      0.00000000000003845774	     -0.00000000000005491642	     -2.38979410447969040000	     -0.56427763806772357000	    -11.82884606450197000000	    -31.31310923933834500000	    -14.96330515074601500000	     -2.91474991424608380000	    104.99005119154249000000	     91.35829471867418800000	      0.00000000000000524693	      0.00000000000004431206	    -13.47841005329998300000	    -11.06011202488032900000	     -3.28482623227585120000	    129.25461333988352000000	     87.40813558046933500000	     -0.00000000000001545885	     -0.00000000000002388340
      2.41750000000000000000	     -6.06365167597172940000	      0.14319803056768096000	      4.28614462574325650000	      0.91913797029831834000	      1.02742214178461700000	     -0.30587640078923822000	     43.14258252995710300000	      3.71377849028613040000	      3.30795566286732790000	    -91.55316303011484500000	      3.68455075834040090000	      0.00000000000014395239	      0.00000000000005638202	      1.93657315433626720000	      8.32244071005220040000	     12.46227223724027200000	    -27.76390321570889000000	     18.01631871757922800000	      0.00000000000003869821	     -0.00000000000005544193	     -2.30194145293149430000	     -0.45434143768952723000	    -11.84936588493597900000	    -31.43483367342569300000	    -14.96543802141114200000	     -2.92617497444970990000	    105.11855664562012000000	     91.29698635898836300000	      0.00000000000000526682	      0.00000000000004437619	    -13.41243733205471300000	    -10.99910607313965700000	     -3.21333458388322550000	    129.45105596429696000000	     87.55242062894625100000	     -0.00000000000001545921	     -0.00000000000002393979
      2.41849999999999990000	     -6.09031961975822430000	      0.05232193720781383500	      4.22110252591341690000	      0.91940297226806034000	      1.02826822237350290000	     -0.30576366350227707000	     43.23350463566630700000	      3.83234335162055210000	      3.33706209549577880000	    -91.10748825533748600000	      3.68435504431326690000	      0.00000000000014433095	      0.00000000000005657473	      1.63679928155513890000	      8.17057422992455430000	     12.40484552147565900000	    -27.44788146547624300000	     17.56705195152526500000	      0.00000000000003894868	     -0.00000000000005600331	     -2.21429886744052510000	     -0.34415444718723054000	    -11.86679253989744600000	    -31.55719707114986900000	    -14.96646100320569100000	     -2.93940185116818410000	    105.24692934595090000000	     91.23542330217524900000	      0.00000000000000528681	      0.00000000000004444087	    -13.34820855065141200000	    -10.93766447245131900000	     -3.14039101923739940000	    129.64635977474191000000	     87.69644998235287400000	     -0.00000000000001545988	     -0.00000000000002398849
      2.41950000000000020000	     -6.11648840135914900000	     -0.03855507307146121400	      4.15429944750771350000	      0.91967301019131442000	      1.02911997460718860000	     -0.30564829945527594000	     43.31956387635845100000	      3.95146060425197820000	      3.36624878186791940000	    -90.65553999699533000000	      3.68295651394020360000	      0.00000000000014470781	      0.00000000000005676707	      1.33776241154727970000	      8.01847221638365500000	     12.34117816855225200000	    -27.13172332119276600000	     17.10674536917643400000	      0.00000000000003920039	     -0.00000000000005656557	     -2.12691078881314950000	     -0.23375947290103880000	    -11.88122532904154500000	    -31.68014263415314200000	    -14.96639405877095500000	     -2.95439632484257020000	    105.37510931027511000000	     91.17352410534277900000	      0.00000000000000530668	      0.00000000000004450711	    -13.28575884884053700000	    -10.87580985139067000000	     -3.06602310728781370000	    129.84051688743065000000	     87.84013109894286200000	     -0.00000000000001546007	     -0.00000000000002403383
      2.42050000000000010000	     -6.14216095147299510000	     -0.12937762415566134000	      4.08581946497628760000	      0.91994786209806323000	      1.02997713741765050000	     -0.30553049192925791000	     43.40076725773910500000	      4.07099724674372520000	      3.39548123550556590000	    -90.19736585462465000000	      3.68029656712975410000	      0.00000000000014508267	      0.00000000000005695924	      1.03954628772783250000	      7.86626367134253620000	     12.27130361075428900000	    -26.81556468428244600000	     16.63558208458601900000	      0.00000000000003944938	     -0.00000000000005709613	     -2.03982113671548900000	     -0.12320344723821008000	    -11.89276972047057200000	    -31.80361397986083500000	    -14.96525771170068500000	     -2.97112254363334080000	    105.50304183968829000000	     91.11121364743533500000	      0.00000000000000532684	      0.00000000000004457283	    -13.22512012242547600000	    -10.81356738524818300000	     -2.99025883896020830000	    130.03352097830168000000	     87.98337564068207000000	     -0.00000000000001545986	     -0.00000000000002406183
